<svg width="15" height="15" viewBox="0 0 15 15" fill="none" xmlns="http://www.w3.org/2000/svg">
<path d="M6.86232 11.4021H2.31756V10.0038H6.86232C7.30892 10.0039 7.74697 10.1263 8.129 10.3576C8.51103 10.589 8.82247 10.9204 9.02958 11.3161C9.23668 11.7118 9.33156 12.1566 9.30393 12.6024C9.2763 13.0481 9.12721 13.4778 8.87282 13.8449C8.61843 14.2119 8.26843 14.5024 7.86076 14.6848C7.45308 14.8672 7.00328 14.9345 6.56007 14.8795C6.11686 14.8245 5.69715 14.6492 5.34642 14.3728C4.99569 14.0963 4.72731 13.7291 4.57036 13.3109L5.87995 12.8194C5.9472 12.9986 6.0622 13.156 6.2125 13.2745C6.36281 13.393 6.54268 13.4681 6.73262 13.4917C6.92257 13.5153 7.11535 13.4865 7.29007 13.4083C7.4648 13.3302 7.61481 13.2057 7.72385 13.0484C7.83289 12.8911 7.8968 12.7069 7.90865 12.5159C7.92051 12.3249 7.87986 12.1342 7.79111 11.9646C7.70236 11.7951 7.5689 11.653 7.40518 11.5538C7.24145 11.4547 7.05372 11.4022 6.86232 11.4021ZM3.01675 7.20699H12.4559C12.9025 7.20715 13.3405 7.32952 13.7225 7.56085C14.1046 7.79218 14.416 8.12364 14.6231 8.51933C14.8302 8.91501 14.9251 9.35983 14.8975 9.80558C14.8698 10.2513 14.7208 10.681 14.4664 11.0481C14.212 11.4152 13.862 11.7056 13.4543 11.888C13.0466 12.0704 12.5968 12.1377 12.1536 12.0827C11.7104 12.0277 11.2907 11.8525 10.94 11.576C10.5892 11.2995 10.3209 10.9323 10.1639 10.5142L11.4735 10.0226C11.5407 10.2018 11.6557 10.3592 11.806 10.4777C11.9564 10.5963 12.1362 10.6714 12.3262 10.695C12.5161 10.7185 12.7089 10.6897 12.8836 10.6116C13.0583 10.5334 13.2084 10.4089 13.3174 10.2516C13.4264 10.0943 13.4903 9.91017 13.5022 9.71914C13.5141 9.5281 13.4734 9.33746 13.3847 9.16787C13.2959 8.99829 13.1624 8.85622 12.9987 8.75707C12.835 8.65791 12.6473 8.60546 12.4559 8.60538H3.01675C2.46044 8.60538 1.92691 8.38438 1.53354 7.99101C1.14017 7.59764 0.919174 7.06411 0.919174 6.5078C0.919174 5.95149 1.14017 5.41796 1.53354 5.02459C1.92691 4.63121 2.46044 4.41022 3.01675 4.41022H8.95989C9.1513 4.41014 9.33903 4.35768 9.50276 4.25853C9.66648 4.15938 9.79994 4.01731 9.88869 3.84772C9.97744 3.67814 10.0181 3.4875 10.0062 3.29646C9.99438 3.10542 9.93047 2.92127 9.82143 2.76396C9.71239 2.60665 9.56238 2.48218 9.38765 2.40403C9.21293 2.32589 9.02015 2.29705 8.8302 2.32064C8.64026 2.34422 8.46039 2.41934 8.31008 2.53786C8.15978 2.65637 8.04478 2.81375 7.97753 2.99295L6.66794 2.50212C6.86964 1.9657 7.25315 1.51706 7.75165 1.23435C8.25015 0.951646 8.83204 0.852805 9.39593 0.95505C9.95982 1.0573 10.47 1.35415 10.8375 1.79388C11.205 2.23361 11.4065 2.78835 11.4071 3.36143C11.4071 4.01046 11.1492 4.63291 10.6903 5.09184C10.2314 5.55078 9.60893 5.8086 8.95989 5.8086H3.01675C2.83132 5.8086 2.65347 5.88227 2.52235 6.01339C2.39123 6.14452 2.31756 6.32236 2.31756 6.5078C2.31756 6.69324 2.39123 6.87108 2.52235 7.0022C2.65347 7.13333 2.83132 7.20699 3.01675 7.20699Z" fill="white"/>
</svg>
